<svg width="236" height="105" viewBox="0 0 236 105" fill="none" xmlns="http://www.w3.org/2000/svg">
<path d="M31.08 41V12.02H23.52V24.41C23.52 26.09 23.562 29.072 23.772 32.012L12.768 12.02H3.36V41H10.92V29.03C10.92 27.35 10.92 24.788 10.668 21.848L21.21 41H31.08ZM57.5797 29.492C57.5797 23.696 53.7997 17.984 46.3237 17.984C38.8477 17.984 34.3537 23.318 34.3537 29.87C34.3537 37.766 39.4777 41.588 45.9037 41.588C51.6577 41.588 55.8577 38.732 57.1597 33.65H49.7257C49.4317 35.372 48.1297 36.464 45.9877 36.464C43.8457 36.464 42.2077 35.414 41.8297 31.676H57.4537C57.5377 30.92 57.5797 30.164 57.5797 29.492ZM45.9457 23.108C47.9617 23.108 49.2637 24.41 49.6837 27.056H42.0817C42.5857 24.284 43.9717 23.108 45.9457 23.108ZM95.3623 18.572H87.2143L84.3583 34.658L81.5023 18.74H72.5143L69.8263 34.616L66.8863 18.572H58.5703L65.6683 41H74.1103L76.9663 25.88L79.8223 41H88.2643L95.3623 18.572ZM17.178 75.544V81.424H22.806C21.756 84.616 19.824 86.044 16.884 86.044C13.314 86.044 10.164 83.566 10.164 76.258C10.164 70 13.23 66.976 16.926 66.976C19.992 66.976 21.882 68.446 22.512 71.554L22.596 71.974H30.156L30.114 71.554C29.526 65.842 25.284 61.432 17.01 61.432C9.072 61.432 2.268 66.64 2.268 76.72C2.268 86.464 7.686 91.588 15.414 91.588C18.48 91.588 20.454 91.126 22.092 89.74L23.352 86.548L24.066 91H29.946V75.544H17.178ZM47.2831 91H54.6751C54.3391 88.522 54.2551 87.01 54.2551 85.33V79.03C54.2551 77.644 54.2131 76.342 54.1291 75.208C53.7931 71.134 51.3571 67.984 44.2591 67.984C38.5891 67.984 33.9271 70.966 33.8851 76.216L41.0251 76.174C41.1511 74.242 42.1591 73.108 43.9231 73.108C45.5611 73.108 46.4851 74.116 46.6111 75.25C46.6951 75.964 46.6951 76.426 46.6951 76.888V77.224H45.2671C37.6651 77.224 33.1291 80.164 33.1291 84.952C33.1291 89.278 36.6151 91.588 40.3111 91.588C42.3691 91.588 44.2591 91.084 45.8551 90.076L46.7791 87.724L47.2831 91ZM43.4191 86.464C41.9071 86.464 40.8571 85.708 40.8571 84.364C40.8571 82.138 43.2931 81.256 46.6951 81.508V82.978C46.6951 85.33 44.9311 86.464 43.4191 86.464ZM94.8655 73.654C94.3615 70.588 91.8415 67.984 87.3475 67.984C85.2895 67.984 83.9035 68.446 82.5175 69.286L80.1655 72.352C79.1995 69.874 76.8055 67.984 72.9835 67.984C70.9255 67.984 69.5395 68.446 68.1535 69.286L66.3475 72.184V68.572H58.7875V91H66.3475V79.156C66.3475 75.334 67.3135 73.108 69.7495 73.108C71.7235 73.108 72.7315 74.368 72.9835 76.51C73.1095 77.644 73.1515 78.862 73.1515 79.576V91H80.7115V79.156C80.7115 75.334 81.6775 73.108 84.1135 73.108C86.0875 73.108 87.0955 74.368 87.3475 76.51C87.4735 77.644 87.5155 78.862 87.5155 79.576V91H95.0755V77.896C95.0755 76.09 95.0335 74.788 94.8655 73.654ZM121.318 79.492C121.318 73.696 117.538 67.984 110.062 67.984C102.586 67.984 98.092 73.318 98.092 79.87C98.092 87.766 103.216 91.588 109.642 91.588C115.396 91.588 119.596 88.732 120.898 83.65H113.464C113.17 85.372 111.868 86.464 109.726 86.464C107.584 86.464 105.946 85.414 105.568 81.676H121.192C121.276 80.92 121.318 80.164 121.318 79.492ZM109.684 73.108C111.7 73.108 113.002 74.41 113.422 77.056H105.82C106.324 74.284 107.71 73.108 109.684 73.108Z" fill="#2478FF"/>
<circle cx="183.5" cy="52.5" r="52.5" fill="#2478FF"/>
<path d="M207.071 46.6071H189.393V28.9286C189.393 26.7593 187.634 25 185.464 25H181.536C179.366 25 177.607 26.7593 177.607 28.9286V46.6071H159.929C157.759 46.6071 156 48.3664 156 50.5357V54.4643C156 56.6336 157.759 58.3929 159.929 58.3929H177.607V76.0714C177.607 78.2407 179.366 80 181.536 80H185.464C187.634 80 189.393 78.2407 189.393 76.0714V58.3929H207.071C209.241 58.3929 211 56.6336 211 54.4643V50.5357C211 48.3664 209.241 46.6071 207.071 46.6071Z" fill="white"/>
</svg>
